<?xml version="1.0" encoding="utf-8"?>
<!-- Generator: Adobe Illustrator 16.0.0, SVG Export Plug-In . SVG Version: 6.00 Build 0)  -->
<!DOCTYPE svg PUBLIC "-//W3C//DTD SVG 1.1//EN" "http://www.w3.org/Graphics/SVG/1.1/DTD/svg11.dtd">
<svg version="1.1" id="Layer_2" xmlns="http://www.w3.org/2000/svg" xmlns:xlink="http://www.w3.org/1999/xlink" x="0px" y="0px"
	 width="120px" height="120px" viewBox="0 0 120 120" enable-background="new 0 0 120 120" xml:space="preserve">
<line fill="#FFDD15" x1="60.419" y1="60.491" x2="60.533" y2="60.636"/>
<polyline fill="#FDE14E" points="8.167,44.591 43.037,38.515 60.419,60.491 "/>
<polyline fill="#FCB913" points="32.297,69.705 8.167,44.591 60.533,60.636 "/>
<polyline fill="#FDE14E" points="60.533,60.636 27.834,104 32.297,69.705 "/>
<polyline fill="#FCB913" points="60.533,60.636 60.533,8 43.037,38.515 "/>
<polyline fill="#981A3B" points="77.489,38.245 60.533,8.27 60.533,60.636 "/>
<polyline fill="#E4305A" points="60.533,60.636 112.5,44.726 77.489,38.245 "/>
<polyline fill="#2D2266" points="60.533,89.553 92.114,103.693 60.533,60.636 "/>
<polyline fill="#7A5FA8" points="60.533,60.636 27.834,103.865 60.533,89.553 "/>
<polyline fill="#BFBFBF" points="60.533,60.636 60.685,60.918 92.239,103.798 88.265,69.975 "/>
<polyline fill="#828282" points="88.265,69.976 112.431,44.658 60.533,60.636 60.533,60.636 "/>
</svg>
